<svg width="41" height="41" viewBox="0 0 41 41" fill="none" xmlns="http://www.w3.org/2000/svg">
<g clip-path="url(#clip0_463_866)">
<path d="M17.0907 32.0953V18.7653H15.5088C14.3758 19.3692 13.2808 20.0419 12.23 20.7795V22.5164C13.1671 21.8741 14.6516 20.967 15.3738 20.5746H15.4038V32.0953H17.0907ZM20.0596 28.834C20.177 30.4334 21.544 32.3477 24.3155 32.3477C27.4593 32.3477 29.3136 29.6837 29.3136 25.1729C29.3136 20.3397 27.3619 18.5054 24.4329 18.5054C22.1188 18.5054 19.9421 20.1847 19.9421 23.0262C19.9421 25.9251 22.0014 27.4495 24.1306 27.4495C25.9949 27.4495 27.2044 26.5099 27.5868 25.4753H27.6543C27.6443 28.7641 26.5022 30.8833 24.393 30.8833C22.7336 30.8833 21.8739 29.7587 21.7689 28.834H20.0596ZM27.4393 23.0437C27.4393 24.783 26.0424 25.9926 24.4804 25.9926C22.9785 25.9926 21.6215 25.0354 21.6215 22.9937C21.6215 20.937 23.076 19.9698 24.5404 19.9698C26.1223 19.9698 27.4393 20.9645 27.4393 23.0437Z" fill="#235C21"/>
<path d="M9.73113 0.387207C10.0625 0.387207 10.3803 0.518854 10.6147 0.753188C10.849 0.987521 10.9807 1.30535 10.9807 1.63674V2.88628H30.9732V1.63674C30.9732 1.30535 31.1049 0.987521 31.3392 0.753188C31.5735 0.518854 31.8914 0.387207 32.2228 0.387207C32.5542 0.387207 32.872 0.518854 33.1063 0.753188C33.3407 0.987521 33.4723 1.30535 33.4723 1.63674V2.88628H35.9714C37.297 2.88628 38.5683 3.41287 39.5056 4.3502C40.4429 5.28753 40.9695 6.55883 40.9695 7.88442V35.3742C40.9695 36.6998 40.4429 37.9711 39.5056 38.9084C38.5683 39.8458 37.297 40.3724 35.9714 40.3724H5.98252C4.65693 40.3724 3.38563 39.8458 2.4483 38.9084C1.51096 37.9711 0.984375 36.6998 0.984375 35.3742V7.88442C0.984375 6.55883 1.51096 5.28753 2.4483 4.3502C3.38563 3.41287 4.65693 2.88628 5.98252 2.88628H8.48159V1.63674C8.48159 1.30535 8.61324 0.987521 8.84757 0.753188C9.0819 0.518854 9.39973 0.387207 9.73113 0.387207V0.387207ZM5.98252 5.38535C5.31972 5.38535 4.68407 5.64864 4.21541 6.11731C3.74674 6.58598 3.48345 7.22163 3.48345 7.88442V35.3742C3.48345 36.037 3.74674 36.6727 4.21541 37.1413C4.68407 37.61 5.31972 37.8733 5.98252 37.8733H35.9714C36.6342 37.8733 37.2698 37.61 37.7385 37.1413C38.2072 36.6727 38.4704 36.037 38.4704 35.3742V7.88442C38.4704 7.22163 38.2072 6.58598 37.7385 6.11731C37.2698 5.64864 36.6342 5.38535 35.9714 5.38535H5.98252Z" fill="#235C21"/>
<path d="M7.23193 10.3836C7.23193 10.0522 7.36358 9.73435 7.59791 9.50001C7.83225 9.26568 8.15007 9.13403 8.48147 9.13403H33.4722C33.8036 9.13403 34.1214 9.26568 34.3557 9.50001C34.5901 9.73435 34.7217 10.0522 34.7217 10.3836V12.8826C34.7217 13.214 34.5901 13.5319 34.3557 13.7662C34.1214 14.0005 33.8036 14.1322 33.4722 14.1322H8.48147C8.15007 14.1322 7.83225 14.0005 7.59791 13.7662C7.36358 13.5319 7.23193 13.214 7.23193 12.8826V10.3836Z" fill="#235C21"/>
</g>
<defs>
<clipPath id="clip0_463_866">
<rect width="39.9851" height="39.9851" fill="white" transform="translate(0.984375 0.387207)"/>
</clipPath>
</defs>
</svg>
