<svg width="122" height="109" viewBox="0 0 122 109" fill="none" xmlns="http://www.w3.org/2000/svg">
<path d="M0.699707 40C0.699707 18.1848 18.3845 0.5 40.1997 0.5H120.544V107.588H40.1997C18.3845 107.588 0.699707 89.9035 0.699707 68.0882V40Z" fill="#EFFFE2" stroke="#F2F2F2"/>
<circle cx="60.9771" cy="54.3797" r="37.586" fill="#C7D6BC"/>
<g clip-path="url(#clip0_462_769)">
<path d="M57.0907 66.0953V52.7653H55.5088C54.3758 53.3692 53.2808 54.0419 52.23 54.7795V56.5164C53.1671 55.8741 54.6516 54.967 55.3738 54.5746H55.4038V66.0953H57.0907V66.0953ZM60.0596 62.834C60.177 64.4334 61.544 66.3477 64.3155 66.3477C67.4593 66.3477 69.3136 63.6837 69.3136 59.1729C69.3136 54.3397 67.3619 52.5054 64.4329 52.5054C62.1188 52.5054 59.9421 54.1847 59.9421 57.0262C59.9421 59.9251 62.0014 61.4495 64.1306 61.4495C65.9949 61.4495 67.2044 60.5099 67.5868 59.4753H67.6543C67.6443 62.7641 66.5022 64.8833 64.393 64.8833C62.7336 64.8833 61.8739 63.7587 61.7689 62.834H60.0596V62.834ZM67.4393 57.0437C67.4393 58.783 66.0424 59.9926 64.4804 59.9926C62.9785 59.9926 61.6215 59.0354 61.6215 56.9937C61.6215 54.937 63.076 53.9698 64.5404 53.9698C66.1223 53.9698 67.4393 54.9645 67.4393 57.0437Z" fill="#235C21"/>
<path d="M49.7311 34.3872C50.0625 34.3872 50.3803 34.5189 50.6147 34.7532C50.849 34.9875 50.9807 35.3053 50.9807 35.6367V36.8863H70.9732V35.6367C70.9732 35.3053 71.1049 34.9875 71.3392 34.7532C71.5735 34.5189 71.8914 34.3872 72.2228 34.3872C72.5542 34.3872 72.872 34.5189 73.1063 34.7532C73.3407 34.9875 73.4723 35.3053 73.4723 35.6367V36.8863H75.9714C77.297 36.8863 78.5683 37.4129 79.5056 38.3502C80.4429 39.2875 80.9695 40.5588 80.9695 41.8844V69.3742C80.9695 70.6998 80.4429 71.9711 79.5056 72.9084C78.5683 73.8458 77.297 74.3724 75.9714 74.3724H45.9825C44.6569 74.3724 43.3856 73.8458 42.4483 72.9084C41.511 71.9711 40.9844 70.6998 40.9844 69.3742V41.8844C40.9844 40.5588 41.511 39.2875 42.4483 38.3502C43.3856 37.4129 44.6569 36.8863 45.9825 36.8863H48.4816V35.6367C48.4816 35.3053 48.6132 34.9875 48.8476 34.7532C49.0819 34.5189 49.3997 34.3872 49.7311 34.3872V34.3872ZM45.9825 39.3854C45.3197 39.3854 44.6841 39.6486 44.2154 40.1173C43.7467 40.586 43.4834 41.2216 43.4834 41.8844V69.3742C43.4834 70.037 43.7467 70.6727 44.2154 71.1413C44.6841 71.61 45.3197 71.8733 45.9825 71.8733H75.9714C76.6342 71.8733 77.2698 71.61 77.7385 71.1413C78.2072 70.6727 78.4704 70.037 78.4704 69.3742V41.8844C78.4704 41.2216 78.2072 40.586 77.7385 40.1173C77.2698 39.6486 76.6342 39.3854 75.9714 39.3854H45.9825Z" fill="#235C21"/>
<path d="M47.2319 44.3836C47.2319 44.0522 47.3636 43.7343 47.5979 43.5C47.8322 43.2657 48.1501 43.134 48.4815 43.134H73.4722C73.8036 43.134 74.1214 43.2657 74.3557 43.5C74.5901 43.7343 74.7217 44.0522 74.7217 44.3836V46.8826C74.7217 47.214 74.5901 47.5319 74.3557 47.7662C74.1214 48.0005 73.8036 48.1322 73.4722 48.1322H48.4815C48.1501 48.1322 47.8322 48.0005 47.5979 47.7662C47.3636 47.5319 47.2319 47.214 47.2319 46.8826V44.3836Z" fill="#235C21"/>
</g>
<defs>
<clipPath id="clip0_462_769">
<rect width="39.9851" height="39.9851" fill="white" transform="translate(40.9844 34.3872)"/>
</clipPath>
</defs>
</svg>
