<svg width="97" height="105" viewBox="0 0 97 105" fill="none" xmlns="http://www.w3.org/2000/svg">
<rect opacity="0.15" width="97" height="104.955" rx="12" fill="#006732"/>
<path d="M78.0144 75.2663H20.629C18.3263 75.2663 16.4458 73.2316 16.4458 70.7401V34.7676C16.4458 32.2761 18.3263 30.2413 20.629 30.2413H78.0144C80.317 30.2413 82.1975 32.2761 82.1975 34.7676V70.7401C82.1975 73.2316 80.317 75.2663 78.0144 75.2663Z" fill="#FFC107"/>
<path d="M16.4404 37.8523H82.2031V47.3852H16.4404V37.8523Z" fill="#424242"/>
<path d="M76.8409 58.769H21.8349C21.2976 58.769 20.8535 58.2944 20.8535 57.7072V52.7182C20.8535 52.1369 21.2921 51.6564 21.8349 51.6564H76.8409C77.3782 51.6564 77.8223 52.1309 77.8223 52.7182V57.7072C77.8168 58.2885 77.3782 58.769 76.8409 58.769Z" fill="white"/>
<path d="M27.3779 56.6039C27.685 55.9633 27.7672 55.2158 28.0413 54.5574C28.3154 53.8989 28.913 53.2879 29.5709 53.4006C30.1795 53.5074 30.5578 54.1658 30.7826 54.7828C31.0951 55.6429 31.265 56.5624 31.287 57.4878C31.2924 57.6777 31.2815 57.8853 31.1663 58.0336C30.9635 58.2827 30.5468 58.1582 30.3878 57.8734C30.2288 57.5887 30.2672 57.2268 30.3385 56.9006C30.6784 55.3879 31.7749 54.1006 33.14 53.6141C33.2826 53.5608 33.4306 53.5192 33.5786 53.5489C33.8966 53.6141 34.0721 53.9701 34.2146 54.2785C34.5491 54.9845 34.9548 55.6548 35.4208 56.2658C35.6072 56.515 35.821 56.7582 36.1061 56.8531C37.0436 57.1497 37.5864 55.6548 38.491 55.2574C39.5765 54.7828 40.6346 56.0226 41.786 56.254C43.4691 56.5921 44.3627 55.1743 45.8375 54.8124C46.0349 54.765 46.2487 54.7353 46.4461 54.7946C46.8079 54.9074 47.0327 55.2811 47.2465 55.6192C47.7455 56.4141 48.4582 57.1972 49.3464 57.2031C49.911 57.209 50.4319 56.8946 50.9472 56.6277C52.7729 55.6845 54.9275 55.2929 56.8355 56.0167" stroke="#424242" stroke-width="2" stroke-miterlimit="10" stroke-linecap="round" stroke-linejoin="round"/>
</svg>
