<svg width="97" height="105" viewBox="0 0 97 105" fill="none" xmlns="http://www.w3.org/2000/svg">
<rect opacity="0.15" width="97" height="104.96" rx="12" fill="#006732"/>
<path fill-rule="evenodd" clip-rule="evenodd" d="M24.6611 21.3478V74.7173C24.6611 76.1328 25.1808 77.4902 26.1057 78.4911C27.0307 79.492 28.2852 80.0543 29.5933 80.0543H50.9662V73.7655C49.7125 72.9823 48.7327 71.7733 48.1787 70.3261C47.6247 68.8789 47.5275 67.2743 47.9022 65.7612C48.2768 64.2481 49.1025 62.9111 50.251 61.9575C51.3995 61.0039 52.8067 60.487 54.2544 60.487C55.702 60.487 57.1092 61.0039 58.2577 61.9575C59.4062 62.9111 60.2319 64.2481 60.6065 65.7612C60.9812 67.2743 60.884 68.8789 60.33 70.3261C59.776 71.7733 58.7962 72.9823 57.5425 73.7655V80.0543H65.7628C67.0709 80.0543 68.3255 79.492 69.2504 78.4911C70.1754 77.4902 70.695 76.1328 70.695 74.7173V21.3478C70.695 19.9324 70.1754 18.5749 69.2504 17.574C68.3255 16.5731 67.0709 16.0109 65.7628 16.0109H29.5933C28.2852 16.0109 27.0307 16.5731 26.1057 17.574C25.1808 18.5749 24.6611 19.9324 24.6611 21.3478ZM54.2544 71.1593C55.1264 71.1593 55.9628 70.7845 56.5794 70.1172C57.1961 69.45 57.5425 68.545 57.5425 67.6014C57.5425 66.6577 57.1961 65.7528 56.5794 65.0855C55.9628 64.4183 55.1264 64.0434 54.2544 64.0434C53.3823 64.0434 52.5459 64.4183 51.9293 65.0855C51.3126 65.7528 50.9662 66.6577 50.9662 67.6014C50.9662 68.545 51.3126 69.45 51.9293 70.1172C52.5459 70.7845 53.3823 71.1593 54.2544 71.1593ZM37.8137 28.4637C37.8137 27.9919 37.9869 27.5394 38.2952 27.2058C38.6035 26.8722 39.0217 26.6848 39.4577 26.6848H55.8984C56.3345 26.6848 56.7526 26.8722 57.061 27.2058C57.3693 27.5394 57.5425 27.9919 57.5425 28.4637C57.5425 28.9356 57.3693 29.3881 57.061 29.7217C56.7526 30.0553 56.3345 30.2427 55.8984 30.2427H39.4577C39.0217 30.2427 38.6035 30.0553 38.2952 29.7217C37.9869 29.3881 37.8137 28.9356 37.8137 28.4637ZM32.8815 37.3587C32.4454 37.3587 32.0273 37.5461 31.7189 37.8797C31.4106 38.2133 31.2374 38.6658 31.2374 39.1376C31.2374 39.6095 31.4106 40.062 31.7189 40.3956C32.0273 40.7292 32.4454 40.9166 32.8815 40.9166H62.4747C62.9107 40.9166 63.3289 40.7292 63.6372 40.3956C63.9455 40.062 64.1188 39.6095 64.1188 39.1376C64.1188 38.6658 63.9455 38.2133 63.6372 37.8797C63.3289 37.5461 62.9107 37.3587 62.4747 37.3587H32.8815ZM31.2374 46.2536C31.2374 45.7818 31.4106 45.3293 31.7189 44.9956C32.0273 44.662 32.4454 44.4746 32.8815 44.4746H62.4747C62.9107 44.4746 63.3289 44.662 63.6372 44.9956C63.9455 45.3293 64.1188 45.7818 64.1188 46.2536C64.1188 46.7254 63.9455 47.1779 63.6372 47.5115C63.3289 47.8451 62.9107 48.0326 62.4747 48.0326H32.8815C32.4454 48.0326 32.0273 47.8451 31.7189 47.5115C31.4106 47.1779 31.2374 46.7254 31.2374 46.2536ZM32.8815 51.5905C32.4454 51.5905 32.0273 51.778 31.7189 52.1116C31.4106 52.4452 31.2374 52.8977 31.2374 53.3695C31.2374 53.8413 31.4106 54.2938 31.7189 54.6274C32.0273 54.9611 32.4454 55.1485 32.8815 55.1485H62.4747C62.9107 55.1485 63.3289 54.9611 63.6372 54.6274C63.9455 54.2938 64.1188 53.8413 64.1188 53.3695C64.1188 52.8977 63.9455 52.4452 63.6372 52.1116C63.3289 51.778 62.9107 51.5905 62.4747 51.5905H32.8815Z" fill="#4838FF"/>
<path d="M50.9668 87.1701V80.0542H57.5431V87.1701L54.2549 84.5017L50.9668 87.1701Z" fill="black"/>
</svg>
