<svg width="25" height="27" viewBox="0 0 25 27" fill="none" xmlns="http://www.w3.org/2000/svg">
<g clip-path="url(#clip0_389_61)">
<path opacity="0.8" fill-rule="evenodd" clip-rule="evenodd" d="M24.5192 24.6825C24.5192 25.4789 23.9233 26.125 23.1882 26.125H17.043V16.0079H20.1778L20.6475 12.0655H17.043V9.5478C17.043 8.40636 17.336 7.62856 18.8469 7.62856L20.7743 7.62786V4.10106C20.4405 4.05339 19.2968 3.94594 17.966 3.94594C15.1873 3.94594 13.2849 5.78333 13.2849 9.15784V12.0655H10.1423V16.0079H13.2849V26.125H1.73468C0.999615 26.125 0.403809 25.4789 0.403809 24.6825V1.44245C0.403809 0.64544 0.999615 0 1.73468 0H23.1882C23.9233 0 24.5192 0.64544 24.5192 1.44245V24.6825Z" fill="white"/>
</g>
<defs>
<clipPath id="clip0_389_61">
<rect width="24.1154" height="26.125" fill="white" transform="translate(0.403809)"/>
</clipPath>
</defs>
</svg>
