<svg width="29" height="19" viewBox="0 0 29 19" fill="none" xmlns="http://www.w3.org/2000/svg">
<g clip-path="url(#clip0_389_63)">
<path opacity="0.8" fill-rule="evenodd" clip-rule="evenodd" d="M9.59975 10.834V7.2525H18.1817C18.7793 11.5863 16.9762 18.0865 9.59975 18.0865C4.66488 18.0865 0.663574 14.0373 0.663574 9.04291C0.663574 4.04849 4.66488 0 9.59975 0C11.9152 0 14.025 0.890979 15.6125 2.35318C14.3828 3.52876 13.9883 3.97725 13.6533 4.35807C13.4789 4.55634 13.3207 4.73626 13.0691 4.9909C12.1509 4.22246 11.1496 3.67098 9.59975 3.67098C6.66796 3.67098 4.37971 6.07627 4.37971 9.04291C4.37971 12.0103 6.66796 14.4156 9.59975 14.4156C12.4967 14.4156 13.6736 13.1513 14.4307 10.8291C13.0328 10.8291 9.59975 10.834 9.59975 10.834ZM25.7018 4.29782V7.4314H28.7982V9.66977H25.7018V12.8935H23.4904V9.66977H20.3048V7.4314H23.4904V4.29782H25.7018Z" fill="white"/>
</g>
<defs>
<clipPath id="clip0_389_63">
<rect width="28.1346" height="18.0865" fill="white" transform="translate(0.663574)"/>
</clipPath>
</defs>
</svg>
