<svg width="97" height="105" viewBox="0 0 97 105" fill="none" xmlns="http://www.w3.org/2000/svg">
<rect opacity="0.15" width="97" height="104.96" rx="12" fill="#006732"/>
<path d="M78.9159 79.5204H19.7295V51.0567L49.3227 20.814L78.9159 51.0567V79.5204Z" fill="#E8EAF6"/>
<path d="M73.9835 47.4987L65.7632 38.6038V26.1509H73.9835V47.4987Z" fill="#C5CAE9"/>
<path d="M19.729 79.5204H78.9154V88.4153H19.729V79.5204Z" fill="#C5CAE9"/>
<path d="M49.3223 17.7898L16.4409 50.8789L19.7291 54.7926L49.3223 25.0836L78.9155 54.7926L82.2036 50.8789L49.3223 17.7898Z" fill="#B71C1C"/>
<path d="M39.458 59.9517H59.1868V88.4154H39.458V59.9517Z" fill="#D84315"/>
<path d="M44.3901 40.3828H54.2545V51.0567H44.3901V40.3828Z" fill="#01579B"/>
<path d="M55.0764 73.2939C54.5832 73.2939 54.2544 73.6497 54.2544 74.1834V77.7414C54.2544 78.2751 54.5832 78.6309 55.0764 78.6309C55.5696 78.6309 55.8985 78.2751 55.8985 77.7414V74.1834C55.8985 73.6497 55.5696 73.2939 55.0764 73.2939Z" fill="#FF8A65"/>
</svg>
