<svg width="25" height="27" viewBox="0 0 25 27" fill="none" xmlns="http://www.w3.org/2000/svg">
<g clip-path="url(#clip0_389_57)">
<path opacity="0.8" fill-rule="evenodd" clip-rule="evenodd" d="M22.1239 0H3.74152C2.15829 0 0.875 1.38666 0.875 3.09826V23.0268C0.875 24.7376 2.15829 26.125 3.74152 26.125H22.1239C23.707 26.125 24.9904 24.7376 24.9904 23.0268V3.09826C24.9904 1.38666 23.707 0 22.1239 0ZM18.2082 4.08161C18.2082 3.63125 18.5457 3.26571 18.9614 3.26571H21.2222C21.6385 3.26571 21.976 3.63125 21.976 4.08161V6.53143C21.976 6.98177 21.6385 7.34731 21.2222 7.34731H18.9614C18.5457 7.34731 18.2082 6.98177 18.2082 6.53143V4.08161ZM12.9606 8.08056C15.522 8.08056 17.5985 10.3252 17.5985 13.0928C17.5985 15.8611 15.522 18.105 12.9606 18.105C10.4 18.105 8.32346 15.8611 8.32346 13.0928C8.32346 10.3252 10.4 8.08056 12.9606 8.08056ZM22.7298 22.8594C22.7298 23.3097 22.3922 23.6759 21.976 23.6759H3.8895C3.47315 23.6759 3.13572 23.3097 3.13572 22.8594V10.613H6.15022C5.75754 11.2251 5.62467 12.3674 5.62467 13.0928C5.62467 17.4644 8.91609 21.0216 12.9606 21.0216C17.0059 21.0216 20.2973 17.4644 20.2973 13.0928C20.2973 12.3674 20.2019 11.243 19.7152 10.613H22.7298V22.8594Z" fill="white"/>
</g>
<defs>
<clipPath id="clip0_389_57">
<rect width="24.1154" height="26.125" fill="white" transform="translate(0.875)"/>
</clipPath>
</defs>
</svg>
