<svg width="122" height="110" viewBox="0 0 122 110" fill="none" xmlns="http://www.w3.org/2000/svg">
<path d="M0.699707 40.9707C0.699707 19.1555 18.3845 1.4707 40.1997 1.4707H120.544V108.559H40.1997C18.3845 108.559 0.699707 90.8742 0.699707 69.0589V40.9707Z" fill="#EFFFE2" stroke="#F2F2F2"/>
<circle cx="60.9771" cy="54.7284" r="37.586" fill="#C7D6BC"/>
<path d="M51.9804 70.7226H74.9719L80.9697 76.7203V55.7281C80.9697 53.5289 79.1703 51.7296 76.9712 51.7296H51.9804C49.7813 51.7296 47.9819 53.5289 47.9819 55.7281V66.724C47.9819 68.9232 49.7813 70.7226 51.9804 70.7226Z" fill="#558B2F"/>
<path d="M65.7749 63.5252H62.1763L61.4765 65.6245H59.2773L62.976 55.6282H64.8753L68.5739 65.6245H66.3747L65.7749 63.5252ZM62.6761 61.9258H65.1752L63.9756 58.1272L62.6761 61.9258Z" fill="#1B5E20"/>
<path d="M69.9736 55.7282H46.9821L40.9844 61.7259V38.7345C40.9844 36.5353 42.7837 34.736 44.9829 34.736H69.9736C72.1728 34.736 73.9721 36.5353 73.9721 38.7345V51.7296C73.9721 53.9288 72.1728 55.7282 69.9736 55.7282Z" fill="#8BC34A"/>
<path d="M62.3763 44.9322C62.3763 45.9318 62.1764 46.7315 61.8765 47.4313C61.5766 48.131 61.1768 48.7308 60.577 49.1306L62.2764 50.4301L60.9768 51.6297L58.7777 49.9303C58.5777 49.9303 58.2778 50.0303 57.978 50.0303C57.3782 50.0303 56.7784 49.9303 56.1786 49.7304C55.6788 49.5305 55.179 49.1306 54.7791 48.7308C54.3793 48.3309 54.0794 47.7311 53.8795 47.1314C53.6796 46.5316 53.5796 45.8319 53.5796 45.0322V44.6323C53.5796 43.8326 53.6796 43.1329 53.8795 42.5331C54.0794 41.9333 54.3793 41.3335 54.7791 40.9337C55.179 40.5338 55.5788 40.134 56.1786 39.934C56.6784 39.7341 57.2782 39.6342 57.978 39.6342C58.5777 39.6342 59.1775 39.7341 59.7773 39.934C60.2771 40.134 60.7769 40.5338 61.1768 40.9337C61.5766 41.3335 61.8765 41.9333 62.0764 42.5331C62.2764 43.1329 62.3763 43.8326 62.3763 44.6323V44.9322ZM60.1771 44.4324C60.1771 43.3328 59.9772 42.5331 59.5774 42.0333C59.1775 41.4335 58.6777 41.2336 57.978 41.2336C57.2782 41.2336 56.6784 41.5335 56.3785 42.0333C55.9787 42.633 55.7788 43.4327 55.7788 44.4324V44.9322C55.7788 45.432 55.8787 45.9318 55.9787 46.3317C56.0787 46.7315 56.1786 47.1314 56.3785 47.3313C56.5785 47.6312 56.7784 47.8311 57.0783 47.9311C57.3782 48.031 57.6781 48.131 57.978 48.131C58.6777 48.131 59.2775 47.8311 59.5774 47.3313C59.9772 46.7315 60.1771 45.9318 60.1771 44.8322V44.4324Z" fill="white"/>
</svg>
