<svg width="122" height="109" viewBox="0 0 122 109" fill="none" xmlns="http://www.w3.org/2000/svg">
<path d="M0.199707 40.9118C0.199707 18.8204 18.1083 0.911743 40.1997 0.911743H121.044V109H40.1997C18.1083 109 0.199707 91.0914 0.199707 69V40.9118Z" fill="#EFFFE2"/>
<circle cx="60.9771" cy="55.025" r="37.586" fill="#C7D6BC"/>
<path d="M61.1908 32.8595C45.8177 32.8595 45.9414 46.3245 45.9414 46.5494C45.9414 55.756 46.6462 68.7599 50.3311 73.8768C51.793 75.9048 54.6157 76.0172 54.6157 76.0172L60.9771 76.0097L67.3385 76.0172C67.3385 76.0172 70.165 75.9048 71.6232 73.8768C75.308 68.7599 76.0128 55.756 76.0128 46.5494C76.009 46.3245 76.5638 32.8595 61.1908 32.8595Z" fill="#543930"/>
<path d="M61.1908 32.8595C45.8177 32.8595 45.9414 46.3245 45.9414 46.5494C45.9414 55.756 46.6462 68.7599 50.3311 73.8768C51.793 75.9048 54.6157 76.0172 54.6157 76.0172L60.9771 76.0097L67.3385 76.0172C67.3385 76.0172 70.165 75.9048 71.6232 73.8768C75.308 68.7599 76.0128 55.756 76.0128 46.5494C76.009 46.3245 76.5638 32.8595 61.1908 32.8595Z" fill="url(#paint0_radial_462_766)"/>
<path d="M64.6429 64.464H57.2656V71.7663C57.2656 73.5993 58.7688 75.0838 60.6206 75.0838H61.2916C63.1434 75.0838 64.6466 73.5956 64.6466 71.7663V64.464H64.6429Z" fill="#E59600"/>
<path d="M60.9582 37.1179C54.5106 37.1179 48.5391 41.9124 48.5391 52.0786C48.5391 60.2468 53.5959 65.075 57.9968 66.6344C59.0464 67.0056 60.0585 67.193 60.9582 67.193C61.8504 67.193 62.8587 67.0093 63.9009 66.6419C68.3092 65.09 73.3773 60.2581 73.3773 52.0824C73.3773 41.9124 67.4058 37.1179 60.9582 37.1179Z" fill="#FFCA28"/>
<path d="M62.3864 56.6145C62.3489 56.5995 62.3077 56.5882 62.2664 56.5845H59.6462C59.6049 56.5882 59.5674 56.5995 59.5262 56.6145C59.29 56.7119 59.1588 56.9556 59.2713 57.218C59.3838 57.4804 59.9048 58.2151 60.9544 58.2151C62.004 58.2151 62.5251 57.4804 62.6375 57.218C62.7538 56.9593 62.6263 56.7119 62.3864 56.6145Z" fill="#E59600"/>
<path d="M54.8666 55.0625C55.8748 55.0625 56.6922 54.2167 56.6922 53.1732C56.6922 52.1298 55.8748 51.2839 54.8666 51.2839C53.8584 51.2839 53.041 52.1298 53.041 53.1732C53.041 54.2167 53.8584 55.0625 54.8666 55.0625Z" fill="#404040"/>
<path d="M67.0497 55.0625C68.0579 55.0625 68.8753 54.2167 68.8753 53.1732C68.8753 52.1298 68.0579 51.2839 67.0497 51.2839C66.0415 51.2839 65.2241 52.1298 65.2241 53.1732C65.2241 54.2167 66.0415 55.0625 67.0497 55.0625Z" fill="#404040"/>
<path d="M57.5767 49.7807C57.228 49.3196 56.4258 48.6523 54.8664 48.6523C53.307 48.6523 52.5011 49.3233 52.1562 49.7807C52.0025 49.9831 52.04 50.2193 52.1487 50.3617C52.2461 50.4929 52.5385 50.6166 52.8609 50.5079C53.1833 50.3992 53.8131 50.0731 54.8664 50.0656C55.9198 50.0731 56.5495 50.3992 56.8719 50.5079C57.1943 50.6166 57.4867 50.4967 57.5842 50.3617C57.6929 50.2193 57.7304 49.9831 57.5767 49.7807Z" fill="#6D4C41"/>
<path d="M69.7598 49.7807C69.4112 49.3196 68.6089 48.6523 67.0495 48.6523C65.4901 48.6523 64.6842 49.3233 64.3393 49.7807C64.1856 49.9831 64.2231 50.2193 64.3318 50.3617C64.4293 50.4929 64.7216 50.6166 65.044 50.5079C65.3664 50.3992 65.9962 50.0731 67.0495 50.0656C68.1029 50.0731 68.7327 50.3992 69.055 50.5079C69.3774 50.6166 69.6698 50.4967 69.7673 50.3617C69.876 50.2193 69.9135 49.9831 69.7598 49.7807Z" fill="#6D4C41"/>
<path d="M64.0772 59.647C62.8964 60.348 59.0316 60.348 57.8507 59.647C57.1722 59.2459 56.4825 59.8607 56.7636 60.4755C57.041 61.079 59.1515 62.4847 60.9733 62.4847C62.7952 62.4847 64.8794 61.079 65.1568 60.4755C65.4379 59.8607 64.7519 59.2422 64.0772 59.647Z" fill="#795548"/>
<path d="M79.8888 76.3883C79.8888 70.9116 71.7355 68.3138 64.6244 67.7291L61.4006 71.8638C61.2957 71.9987 61.1307 72.0812 60.9583 72.0812C60.7859 72.0812 60.6209 72.0025 60.516 71.8638L57.2884 67.7216C53.3336 68.0252 42.0278 69.5021 42.0278 76.3883V77.5167H79.8888V76.3883Z" fill="#212121"/>
<path d="M79.8888 76.3883C79.8888 70.9116 71.7355 68.3138 64.6244 67.7291L61.4006 71.8638C61.2957 71.9987 61.1307 72.0812 60.9583 72.0812C60.7859 72.0812 60.6209 72.0025 60.516 71.8638L57.2884 67.7216C53.3336 68.0252 42.0278 69.5021 42.0278 76.3883V77.5167H79.8888V76.3883Z" fill="url(#paint1_radial_462_766)"/>
<path d="M61.1908 32.8595C45.8177 32.8595 45.9414 46.3245 45.9414 46.5494C45.9414 49.4583 46.0127 52.7459 46.2226 56.0409L48.7416 56.0334C48.7192 54.9388 49.4876 48.1726 51.7705 47.659C60.1524 45.7734 64.8944 41.3276 64.8944 41.3276C66.1277 44.0191 69.985 46.6469 71.3683 47.6478C72.5041 48.4687 72.9652 54.6014 72.9427 56.0371H75.7204C75.7204 56.0184 75.7279 55.9997 75.7279 55.9772C75.9378 52.6971 76.0053 49.4321 76.0053 46.5419C76.009 46.3245 76.5638 32.8595 61.1908 32.8595Z" fill="#543930"/>
<path d="M61.1908 32.8595C45.8177 32.8595 45.9414 46.3245 45.9414 46.5494C45.9414 49.4583 46.0127 52.7459 46.2226 56.0409L48.7416 56.0334C48.7192 54.9388 49.4876 48.1726 51.7705 47.659C60.1524 45.7734 64.8944 41.3276 64.8944 41.3276C66.1277 44.0191 69.985 46.6469 71.3683 47.6478C72.5041 48.4687 72.9652 54.6014 72.9427 56.0371H75.7204C75.7204 56.0184 75.7279 55.9997 75.7279 55.9772C75.9378 52.6971 76.0053 49.4321 76.0053 46.5419C76.009 46.3245 76.5638 32.8595 61.1908 32.8595Z" fill="url(#paint2_radial_462_766)"/>
<path d="M80.7023 51.0139C80.2375 51.0139 79.8589 51.3738 79.8589 51.8161V55.2648C79.8589 55.7072 80.2375 56.067 80.7023 56.067C81.1672 56.067 81.5458 55.7072 81.5458 55.2648V51.8161C81.5458 51.3738 81.1672 51.0139 80.7023 51.0139Z" fill="#E8AD00"/>
<path d="M79.0153 51.0139C78.5505 51.0139 78.1719 51.3738 78.1719 51.8161V55.2648C78.1719 55.7072 78.5505 56.067 79.0153 56.067C79.4801 56.067 79.8587 55.7072 79.8587 55.2648V51.8161C79.8587 51.3738 79.4801 51.0139 79.0153 51.0139Z" fill="#E8AD00"/>
<path d="M79.8586 51.0139C79.3937 51.0139 79.0151 51.3738 79.0151 51.8161V56.0108C79.0151 56.4531 79.3937 56.813 79.8586 56.813C80.3234 56.813 80.702 56.4531 80.702 56.0108V51.8161C80.702 51.3738 80.3234 51.0139 79.8586 51.0139Z" fill="#FFCA28"/>
<path d="M79.8588 51.5388C80.4302 51.5388 80.8934 51.0974 80.8934 50.5529C80.8934 50.0084 80.4302 49.567 79.8588 49.567C79.2874 49.567 78.8242 50.0084 78.8242 50.5529C78.8242 51.0974 79.2874 51.5388 79.8588 51.5388Z" fill="#FFCA28"/>
<path d="M79.8587 50.5417C79.6526 50.5417 79.4839 50.373 79.4839 50.1668V35.9221C79.4839 35.7159 79.6526 35.5472 79.8587 35.5472C80.0649 35.5472 80.2336 35.7159 80.2336 35.9221V50.1668C80.2336 50.373 80.0649 50.5417 79.8587 50.5417Z" fill="#504F4F"/>
<path d="M80.2336 35.5322C68.6766 32.627 60.7408 32.5333 60.7408 32.5333C60.7408 32.5333 52.805 32.627 41.248 35.5322V35.8209C41.248 36.3194 41.5742 36.758 42.0502 36.8967C43.4447 37.3091 46.5823 38.1412 48.4791 38.5199C48.4491 38.5498 47.9955 39.2283 47.7106 39.7756C47.7106 39.7756 51.2306 42.0698 60.7408 43.0294C70.251 42.0698 74.4794 39.8431 74.4794 39.8431C74.1496 39.1646 73.7597 38.5911 73.7597 38.5911C75.4466 38.3137 78.0556 37.354 79.4501 36.9117C79.9187 36.7618 80.2336 36.3307 80.2336 35.8396V35.5322Z" fill="url(#paint3_linear_462_766)"/>
<path d="M60.7408 32.5333C60.7408 32.5333 52.805 32.627 41.248 35.5322C41.248 35.5322 54.5219 39.1571 60.7408 39.0484C66.9597 39.1571 80.2336 35.5322 80.2336 35.5322C68.6728 32.627 60.7408 32.5333 60.7408 32.5333Z" fill="url(#paint4_linear_462_766)"/>
<path opacity="0.4" d="M80.2336 35.5322C68.6766 32.627 60.7408 32.5333 60.7408 32.5333C60.7408 32.5333 52.805 32.627 41.248 35.5322V35.8209C41.248 36.3194 41.5742 36.758 42.0502 36.8967C43.4447 37.3091 46.5823 38.1 48.4791 38.5273C48.4791 38.5273 48.078 39.0859 47.7106 39.7756C47.7106 39.7756 51.2306 42.0698 60.7408 43.0294C70.251 42.0698 74.4794 39.8431 74.4794 39.8431C74.1496 39.1646 73.7597 38.5911 73.7597 38.5911C75.4466 38.3137 78.0556 37.354 79.4501 36.9117C79.9187 36.7618 80.2336 36.3307 80.2336 35.8396V35.5322Z" fill="url(#paint5_linear_462_766)"/>
<defs>
<radialGradient id="paint0_radial_462_766" cx="0" cy="0" r="1" gradientUnits="userSpaceOnUse" gradientTransform="translate(60.9771 53.3337) scale(17.6046 20.9512)">
<stop offset="0.794" stop-color="#6D4C41" stop-opacity="0"/>
<stop offset="1" stop-color="#6D4C41"/>
</radialGradient>
<radialGradient id="paint1_radial_462_766" cx="0" cy="0" r="1" gradientUnits="userSpaceOnUse" gradientTransform="translate(60.9583 76.9931) scale(20.3051 10.6541)">
<stop offset="0.598" stop-color="#324632"/>
<stop offset="1" stop-color="#4D614D"/>
</radialGradient>
<radialGradient id="paint2_radial_462_766" cx="0" cy="0" r="1" gradientUnits="userSpaceOnUse" gradientTransform="translate(61.1019 54.4999) scale(18.6572 22.6405)">
<stop offset="0.794" stop-color="#6D4C41" stop-opacity="0"/>
<stop offset="1" stop-color="#6D4C41"/>
</radialGradient>
<linearGradient id="paint3_linear_462_766" x1="60.7393" y1="30.9091" x2="60.7393" y2="41.6451" gradientUnits="userSpaceOnUse">
<stop offset="0.003" stop-color="#424242"/>
<stop offset="0.472" stop-color="#353535"/>
<stop offset="1" stop-color="#212121"/>
</linearGradient>
<linearGradient id="paint4_linear_462_766" x1="60.7393" y1="30.9713" x2="60.7393" y2="42.592" gradientUnits="userSpaceOnUse">
<stop offset="0.003" stop-color="#616161"/>
<stop offset="0.324" stop-color="#505050"/>
<stop offset="0.955" stop-color="#242424"/>
<stop offset="1" stop-color="#212121"/>
</linearGradient>
<linearGradient id="paint5_linear_462_766" x1="41.9562" y1="37.781" x2="79.7526" y2="37.781" gradientUnits="userSpaceOnUse">
<stop offset="0.001" stop-color="#324632"/>
<stop offset="0.3" stop-color="#324632"/>
<stop offset="0.7" stop-color="#324632"/>
<stop offset="1" stop-color="#324632"/>
</linearGradient>
</defs>
</svg>
