<svg width="27" height="23" viewBox="0 0 27 23" fill="none" xmlns="http://www.w3.org/2000/svg">
<g clip-path="url(#clip0_389_59)">
<path opacity="0.8" fill-rule="evenodd" clip-rule="evenodd" d="M25.5391 0.408671C24.5028 1.04753 23.3573 1.51215 22.133 1.76075C21.158 0.677104 19.7643 0 18.2213 0C15.2637 0 12.8635 2.49878 12.8635 5.58044C12.8635 6.01816 12.9095 6.4424 13.0016 6.85108C8.54712 6.61807 4.59832 4.39905 1.95325 1.01849C1.49148 1.84575 1.22781 2.80544 1.22781 3.82747C1.22781 5.76247 2.17368 7.47083 3.61271 8.47159C2.73521 8.44468 1.90722 8.19113 1.18317 7.77609V7.84407C1.18317 10.549 3.03096 12.8055 5.4849 13.3162C5.0357 13.4472 4.56137 13.5131 4.07239 13.5131C3.72709 13.5131 3.39018 13.4791 3.06374 13.4139C3.74594 15.6301 5.72417 17.2442 8.06999 17.2874C6.23616 18.7847 3.92382 19.6771 1.41336 19.6771C0.980882 19.6771 0.55329 19.6516 0.134766 19.6006C2.50641 21.1815 5.32516 22.1058 8.3511 22.1058C18.2108 22.1058 23.6006 13.6037 23.6006 6.22852C23.6006 5.98558 23.5966 5.74334 23.5876 5.50536C24.6346 4.71848 25.5441 3.73612 26.2598 2.61706C25.3 3.06042 24.2662 3.36074 23.1822 3.4953C24.2891 2.80544 25.1388 1.71188 25.5391 0.408671Z" fill="white"/>
</g>
<defs>
<clipPath id="clip0_389_59">
<rect width="26.125" height="22.1058" fill="white" transform="translate(0.134766)"/>
</clipPath>
</defs>
</svg>
